<svg width="81" height="90" viewBox="0 0 81 90" fill="none" xmlns="http://www.w3.org/2000/svg">
<path d="M72.0809 33.7264C71.4988 34.0269 70.8849 34.04 70.2746 34.1583C67.9652 34.6089 66.1251 35.8857 64.5103 37.538C63.994 38.0656 63.4664 38.5801 62.9745 39.0701C62.6384 37.7558 63.0308 36.541 63.35 35.3149C63.6466 34.1752 63.7931 33.0167 63.703 31.8357C63.5753 30.1684 63.2617 28.5292 62.935 26.8919C62.6158 25.2959 62.1483 23.7413 61.6038 22.211C61.3635 21.5332 60.8509 21.3323 60.1693 21.5426C59.6529 21.7022 59.4708 22.0852 59.636 22.8006C59.7862 23.4465 59.775 24.0417 59.5102 24.6782C59.1967 25.433 58.9376 26.2197 58.8212 27.044C58.6296 28.4109 58.8305 29.7684 58.9 31.1278C58.9526 32.1699 58.9301 33.1913 58.5789 34.3066C57.7509 31.4282 56.9454 28.6512 55.8395 25.9738C55.586 25.3598 55.3175 24.7495 55.0209 24.1543C54.7617 23.6324 54.2848 23.5084 53.7478 23.6042C53.2728 23.6906 52.856 23.9891 52.8729 24.4566C52.9104 25.5231 52.8053 26.5521 52.4617 27.5585C52.4504 27.5941 52.4598 27.6354 52.456 27.673C52.3471 29.0868 52.6776 30.4575 52.8822 31.8394C53.0644 33.0712 53.485 34.2634 53.53 35.5158C53.5619 36.3814 53.53 36.3326 52.6889 36.4527C52.1481 36.5297 51.8796 36.4171 51.7838 35.8688C51.7463 35.6491 51.598 35.4501 51.5003 35.2417C50.9032 33.9743 50.3437 32.6881 50.1353 31.293C49.987 30.2942 49.7241 29.3103 49.726 28.287C49.726 27.8307 49.4593 27.5716 48.9862 27.489C48.6088 27.4233 48.3309 27.5641 48.2689 27.8814C48.1018 28.7357 47.6681 29.4567 47.2851 30.2153C46.8983 30.9832 46.8908 31.8432 46.902 32.6881C46.9171 33.963 47.2494 35.1929 47.4709 36.4377C47.5104 36.6555 47.623 36.8808 47.24 36.9315C45.7567 37.1287 44.294 37.4441 42.8013 37.5868C40.6702 37.7915 38.7532 37.1155 36.8624 36.2819C35.1294 35.5177 33.4865 34.5564 31.6914 33.9198C29.1698 33.0242 26.6369 32.6881 24.0289 33.5312C22.5662 34.0043 21.1787 34.6465 19.7967 35.3093C17.0423 36.6292 14.1939 37.3634 11.1128 36.7607C10.4368 36.6274 9.74397 36.5842 9.05864 36.5016C8.57233 36.4452 8.16301 36.603 7.94521 37.0442C7.19041 38.5745 6.49193 40.1291 6.42246 41.8772C6.32483 44.3463 6.54075 46.789 7.10216 49.1943C7.50397 50.9217 8.05599 52.5946 9.29897 53.9352C9.82846 54.506 10.4331 54.6544 11.1653 54.3277C12.5679 53.7043 14.0306 53.2443 15.4745 52.7373C17.7914 51.9243 20.1291 51.1489 22.5812 50.886C25.6925 50.5518 28.7774 50.732 31.8379 51.485C34.3877 52.1121 36.915 52.8199 39.4554 53.4734C41.2335 53.9296 43.0172 54.2845 44.8611 54.0667C47.1292 53.8001 49.3448 53.2274 51.5961 52.8613C53.7516 52.5101 55.8489 51.8511 58.0175 51.5619C59.6379 51.346 60.9635 50.6494 62.137 49.4797C63.6391 47.9832 65.0511 46.4135 66.4218 44.8044C68.9828 41.7983 71.5214 38.7716 73.3483 35.2304C73.5454 34.8493 73.7895 34.4925 73.4159 34.0851C73.0479 33.6814 72.5691 33.4748 72.0809 33.7264ZM59.5177 28.8615C59.4032 27.3838 59.7863 26.0132 60.2838 24.6557C60.2895 24.6388 60.3045 24.6237 60.3139 24.6069C60.4885 24.2407 60.6669 23.7413 61.0931 23.7751C61.508 23.807 61.5137 24.3534 61.6169 24.7045C62.2685 26.9389 62.6552 29.2277 62.9444 31.5334C63.1772 33.3922 62.6139 35.144 62.1858 36.9128C62.1464 37.078 62.0807 37.0799 61.9042 37.0442C60.8565 36.8283 59.8557 36.4283 58.7235 36.2838C59.8989 33.8879 59.713 31.3719 59.5177 28.8615ZM60.1411 40.3807C60.3871 40.1329 60.7927 40.2211 61.1363 40.2493C61.0799 41.2557 60.3683 41.8528 59.7468 42.4761C58.3255 43.9031 56.5887 44.7819 54.5289 45.3583C55.3814 44.2542 56.0141 43.184 56.5305 42.048C56.615 41.8622 56.7408 41.8584 56.8835 41.8227C58.0551 41.5392 59.2361 41.2951 60.1411 40.3807ZM52.4016 42.5757C52.4485 42.463 52.5405 42.4649 52.6344 42.4536C53.6201 42.3316 54.6059 42.2076 55.6574 42.0762C55.0847 43.323 54.3881 44.4251 53.4643 45.3808C53.2334 45.6193 52.9198 45.5348 52.6438 45.5761C51.8158 45.7 50.9821 45.7976 50.0301 45.7056C50.9877 44.6917 51.904 43.7905 52.4016 42.5757ZM49.1458 45.4221C49.0313 45.5198 48.913 45.5329 48.774 45.5047C47.5479 45.2682 46.365 44.9264 45.2967 44.0458C47.3827 43.5032 49.3936 43 51.5266 42.6245C50.8976 43.783 50.0639 44.6373 49.1458 45.4221ZM53.1845 27.9152C53.2071 26.9539 53.7178 26.2141 54.2435 25.4799C54.4707 25.1645 54.6528 25.4048 54.7786 25.5888C55.049 25.9869 55.2161 26.4375 55.3907 26.8844C56.369 29.3835 57.1444 31.9465 57.841 34.5376C57.9612 34.9863 57.8654 35.4538 58.0363 35.8988C58.1246 36.1279 58.0307 36.2781 57.7115 36.2274C57.3923 36.1767 57.0599 36.2162 56.7314 36.2162C56.7314 36.2011 56.7295 36.188 56.7295 36.173C56.0198 36.2143 55.31 36.2631 54.6003 36.295C54.4388 36.3025 54.1909 36.4114 54.2323 36.0528C54.3825 34.7629 53.9337 33.5499 53.7309 32.3051C53.4925 30.8481 53.1489 29.406 53.1845 27.9152ZM47.6775 31.693C47.7226 31.293 47.7995 30.8969 47.9591 30.5251C48.0568 30.2998 48.1751 30.0745 48.3271 29.883C48.4642 29.7102 48.6276 29.4605 48.8717 29.5187C49.1195 29.5769 49.1608 29.8642 49.1833 30.0914C49.4143 32.3539 50.2104 34.4362 51.2769 36.4865C50.3287 36.5879 49.4894 36.6837 48.6501 36.7588C48.5093 36.7719 48.2915 36.8827 48.2483 36.5936C48.0061 34.9657 47.4878 33.3697 47.6775 31.693ZM69.1049 40.3807C68.2599 41.4266 67.507 42.4423 66.6677 43.3812C64.9891 45.2569 63.4025 47.2134 61.585 48.9689C60.5561 49.9622 59.4314 50.625 58.0344 50.8128C55.9766 51.0888 53.9863 51.684 51.9491 52.0407C49.4762 52.4726 47.0316 53.0678 44.5344 53.3532C42.4202 53.5954 40.4242 52.9551 38.4246 52.4181C35.2063 51.5507 31.9881 50.6964 28.7004 50.1143C27.2621 49.8589 25.8295 50.0373 24.3931 50.0373C21.173 50.0392 18.1632 51.0249 15.1665 52.052C13.809 52.5176 12.4402 52.9495 11.124 53.5297C10.3373 53.8752 10.0988 53.7925 9.57498 53.1129C8.54229 51.7722 8.05223 50.1988 7.72553 48.5746C7.25612 46.2351 7.00077 43.8731 7.21669 41.4791C7.34813 40.0371 7.96399 38.7622 8.56482 37.4798C8.66434 37.2695 8.81643 37.2282 9.03611 37.2582C9.88855 37.3765 10.741 37.4892 11.5972 37.5887C13.8428 37.8478 16.019 37.6469 18.1519 36.8076C19.6691 36.2105 21.1411 35.5214 22.615 34.8418C26.0079 33.2777 29.305 33.6269 32.6152 35.0971C34.5717 35.9664 36.4437 37.0179 38.4753 37.737C40.229 38.3585 41.9958 38.5256 43.8021 38.214C47.9366 37.5023 52.1012 37.1324 56.2882 36.9785C56.9398 36.9541 57.5932 36.9747 58.2447 36.9747C58.2466 36.9991 58.2466 37.0217 58.2485 37.0461C57.7866 37.14 57.3247 37.2338 56.8628 37.3296C56.5943 37.3859 56.4647 37.5343 56.3859 37.8178C56.2282 38.3904 56.2263 38.9612 56.322 39.5283C56.461 40.345 56.8497 40.6229 57.6908 40.5722C57.9762 40.5553 58.2579 40.4971 58.5527 40.4971C57.6721 40.9403 56.7145 41.1224 55.755 41.2557C52.1838 41.7495 48.6313 42.3259 45.1502 43.3042C43.4528 43.7811 41.8606 44.442 40.4074 45.4371C39.5211 46.0455 38.5973 46.5938 37.6566 47.112C37.4144 47.2453 37.1196 47.3955 37.2924 47.7128C37.4764 48.0489 37.7843 47.8968 38.0472 47.7579C39.185 47.1552 40.2609 46.4511 41.3387 45.7488C42.1629 45.21 43.0341 44.7819 43.9617 44.4589C44.1926 44.3782 44.3804 44.3425 44.6019 44.5077C47.0391 46.3328 49.8086 46.667 52.7452 46.3515C55.0415 46.1056 57.1651 45.4465 59.0465 44.0759C59.7018 43.5971 60.2669 43.03 60.8208 42.4386C62.0431 41.1355 63.3331 39.8925 64.546 38.5801C65.6782 37.3521 66.9343 36.3025 68.4308 35.5552C69.0748 35.2342 69.7489 34.9807 70.5976 34.8831C69.7376 35.8857 68.9415 36.7888 68.2693 37.7877C68.1304 37.9943 68.0234 38.2233 67.8656 38.413C67.2329 39.1659 67.9595 40.5084 69.1049 40.3807Z" fill="#36310D"/>
<path d="M22.0255 20.5531C22.4554 20.2583 22.8929 19.9691 23.4863 19.8114C23.1689 20.0762 22.9493 20.3203 22.7859 20.6057C22.4968 21.107 22.1156 21.5238 21.6668 21.8843C21.4115 22.089 21.1486 22.288 20.9515 22.5565C20.6041 23.0278 20.6098 23.4634 20.9834 23.914C21.2331 24.2144 21.5542 24.4285 21.9015 24.5975C22.692 24.9824 23.4825 25.3711 24.2805 25.7409C24.7837 25.9738 25.3188 26.1127 25.8633 26.2291C27.0838 26.492 28.2066 26.2348 29.2768 25.6565C30.026 25.2528 30.8165 24.958 31.6821 24.6576C31.468 24.9505 31.284 25.1795 31.1244 25.4236C30.1143 26.9727 29.5641 28.7245 28.9276 30.4387C28.8656 30.6059 28.86 30.7561 29.0346 30.8406C29.1923 30.9175 29.3388 30.865 29.4552 30.7317C29.8232 30.3148 30.1781 29.8867 30.563 29.4868C31.8379 28.1574 33.3175 27.0459 34.6074 25.7334C34.8965 25.4386 35.2401 25.1889 35.6495 25.0875C36.0231 24.9937 36.4024 24.759 36.7948 24.9373C37.7167 25.3579 38.5786 25.8611 39.2507 26.6553C40.2083 27.7876 41.104 28.9667 42.0165 30.1346C42.1404 30.2942 42.2549 30.4951 42.4934 30.3993C42.7318 30.3017 42.7394 30.0726 42.7074 29.8511C42.6455 29.4286 42.5835 29.0061 42.514 28.5855C42.3225 27.4383 41.9282 26.3399 41.6578 25.1401C42.3188 25.7597 43.0548 26.0939 43.8716 26.2873C45.9576 26.783 47.8333 26.5164 49.3486 24.8528C49.4706 24.7195 49.6527 24.5918 49.5739 24.3797C49.4875 24.1468 49.2641 24.1656 49.0632 24.1694C48.344 24.1825 47.6249 24.1938 46.8551 24.0436C47.4165 23.8671 47.9366 23.7413 48.4342 23.5404C49.91 22.9452 51.2112 22.0589 52.5124 21.1614C53.9018 20.2038 55.2368 19.1918 56.3765 17.9376C56.7839 17.4888 57.1482 17.0232 57.336 16.4411C57.52 15.8741 57.4017 15.4891 56.9473 15.1099C56.5361 14.7644 56.0423 14.6029 55.5297 14.5935C54.6735 14.5766 54.0163 14.2105 53.5206 13.5571C53.0118 12.8868 52.4035 12.5713 51.5172 12.8849C51.6036 12.6934 51.6336 12.5357 51.7256 12.4437C52.2551 11.9085 52.5405 11.1781 53.1639 10.7181C53.3779 10.5604 53.5619 10.3501 53.7328 10.1417C54.0501 9.75866 54.0351 9.53522 53.6915 9.17284C53.301 8.76165 52.7959 8.65274 52.2551 8.6396C51.3539 8.61707 50.5296 8.94753 49.6903 9.20476C49.1495 9.36999 48.6088 9.54086 48.068 9.70796C48.4774 9.09586 48.8003 8.50629 48.7721 7.78153C48.7308 6.73382 48.5881 5.68235 49.1439 4.69285C49.3411 4.33985 49.1552 4.06009 48.7609 3.95306C48.5262 3.88923 48.2934 3.88735 48.0455 3.90988C47.3076 3.97559 46.6054 4.21969 45.8524 4.3192C46.012 3.80849 46.3087 3.40855 46.5509 2.97858C47.0673 2.06042 46.6523 1.28872 45.6027 1.21737C44.8554 1.16668 44.1269 1.25117 43.4322 1.5591C43.1393 1.68866 42.8614 1.92899 42.5084 1.64547C42.4145 1.57037 42.2324 1.62106 42.1066 1.71119C41.9789 1.80131 41.9076 1.73372 41.793 1.64172C40.5294 0.625925 39.1888 -0.11949 37.4989 0.55833C37.3656 0.610903 37.3224 0.56584 37.2623 0.481347C36.9112 -0.00120085 36.4099 -0.0518975 35.8823 0.034473C35.105 0.162151 34.3258 0.203459 33.539 0.190316C33.0771 0.182805 32.6396 0.297341 32.2172 0.47947C31.7271 0.689764 31.4812 1.07092 31.4117 1.59478C31.3516 2.05479 31.468 2.4904 31.5788 2.95793C31.2483 2.834 30.9535 2.70069 30.6456 2.61057C29.6448 2.31953 28.6234 2.36835 27.8667 3.07809C27.2753 3.63199 26.6594 3.81412 25.9215 3.85355C25.7244 3.86294 25.5254 3.89486 25.332 3.93804C24.1002 4.20654 23.244 5.65794 24.3274 6.85962C24.8795 7.47172 25.5648 7.90921 26.2276 8.37486C27.7447 9.43759 28.1202 10.3952 27.679 12.1827C27.3204 13.6341 26.6745 15.0141 26.6069 16.5275C26.5749 16.5369 26.558 16.5481 26.5505 16.5425C26.4904 16.5049 26.4322 16.4655 26.3759 16.4223C24.0439 14.6085 21.5335 13.2041 18.5406 12.8023C16.7663 12.5638 15.0539 12.6427 13.4297 13.4745C12.6918 13.8519 12.6599 14.28 13.3471 14.7606C13.4166 14.8095 13.4879 14.8564 13.563 14.8996C14.1132 15.2169 14.5056 15.6732 14.7403 16.2609C14.9149 16.6946 15.0802 17.1339 15.2341 17.5752C15.5683 18.5422 15.8913 19.5185 16.5541 20.3221C17.4291 21.383 18.5707 21.7454 19.9094 21.5238C20.7018 21.3905 21.3739 20.9981 22.0255 20.5531ZM29.3144 25.0537C28.4225 25.4781 27.5457 25.9081 26.5149 25.786C25.9065 25.7147 25.3038 25.6133 24.7443 25.356C23.8299 24.9354 22.9249 24.4961 22.0161 24.0624C21.9278 24.0192 21.8452 23.9591 21.7645 23.9028C21.0773 23.4277 21.0416 23.1029 21.6762 22.5828C22.3428 22.0364 22.9117 21.4187 23.3886 20.6958C23.7322 20.1757 24.2392 19.7157 24.8025 19.5091C25.4127 19.2857 26.1187 19.327 26.789 19.4228C27.3316 19.5016 27.816 19.7438 28.3099 19.956C28.753 20.1456 29.1905 20.3522 29.673 20.4367C29.8082 20.4611 29.9321 20.5155 30.0316 20.6413C30.9742 21.8242 32.1327 22.7574 33.432 23.5235C33.4639 23.5423 33.4846 23.5798 33.5146 23.6155C32.0163 23.8333 30.6531 24.4172 29.3144 25.0537ZM33.6216 25.9325C32.4406 27.1097 31.0869 28.0974 29.9378 29.3178C30.5198 27.6693 31.1357 26.0526 32.358 24.7327C32.9344 24.1093 33.6404 24.1037 34.3539 24.1544C34.7895 24.1844 35.2383 24.3046 35.7452 24.528C34.7858 24.7176 34.2131 25.3429 33.6216 25.9325ZM42.0446 28.9479C42.0578 29.0268 42.0465 29.1113 42.0465 29.2596C40.6364 27.6786 39.6732 25.7747 37.6473 24.7608C38.7306 24.6801 39.7089 24.6332 40.6665 24.4304C40.8092 24.4003 40.8786 24.4604 40.9143 24.5881C41.3124 26.0357 41.7836 27.4646 42.0446 28.9479ZM37.8369 24.2144C36.7479 24.2501 35.7227 24.0455 34.7689 23.4934C34.0422 23.0729 33.2198 22.8475 32.5401 22.3049C31.7459 21.6721 30.9385 21.0394 30.3696 20.2095C29.3857 18.7769 29.5528 17.1978 30.0241 15.6262C30.2175 14.9766 30.548 14.3945 31.0155 13.9044C32.0182 12.8549 33.0058 11.7978 34.2525 11.0016C35.1256 10.444 36.0363 10.2318 37.037 10.2581C37.2886 10.2656 37.497 10.3895 37.7036 10.5191C38.372 10.9416 38.9222 11.5011 39.4798 12.0512C40.1595 12.7215 40.9613 13.2003 41.8625 13.5045C42.7131 13.7937 43.5167 13.6209 44.294 13.2323C44.9437 12.9055 45.6102 12.6333 46.3463 12.5695C46.5359 12.5526 46.7274 12.545 46.8945 12.6108C48.2239 13.1346 49.5683 13.2135 50.9877 12.7272C50.6911 13.9664 50.6573 15.1793 50.3512 16.3472C50.0452 17.5132 49.358 18.4445 48.498 19.2613C47.6812 20.0367 46.8157 20.7671 46.0458 21.5858C44.938 22.763 43.5524 23.3395 42.0184 23.6493C40.6383 23.9253 39.2507 24.1694 37.8369 24.2144ZM48.6088 24.7571C47.3376 26.4375 43.1506 26.3437 41.9526 24.6012C44.1776 24.3064 46.397 24.5167 48.6088 24.7571ZM51.8158 13.3505C52.1706 13.236 52.4917 13.2473 52.764 13.5233C53.0137 13.7768 53.2465 14.049 53.4962 14.3025C53.9863 14.8019 54.5834 15.0573 55.2837 15.093C55.7419 15.1155 56.1812 15.2131 56.5718 15.4873C56.8778 15.7032 56.9473 15.9698 56.8215 16.304C56.6544 16.7509 56.3802 17.1227 56.0667 17.4813C54.8218 18.9027 53.2822 19.9579 51.7632 21.0469C49.7222 22.5114 47.5085 23.5498 44.9963 23.8746C44.3766 23.9553 43.7495 24.0192 43.1092 23.9366C44.6827 23.5873 45.813 22.5828 46.8945 21.4881C47.5761 20.7991 48.3009 20.1513 49.0106 19.4922C50.293 18.3018 50.9314 16.8054 51.1286 15.0949C51.1717 14.7268 51.275 14.3626 51.275 13.9964C51.2788 13.5984 51.4909 13.4557 51.8158 13.3505ZM49.542 9.81499C50.3869 9.53335 51.2206 9.18786 52.1331 9.16346C52.4673 9.15407 52.7865 9.20101 53.0813 9.36248C53.4324 9.554 53.4606 9.68731 53.1808 9.97271C52.7827 10.3802 52.2946 10.72 51.9735 11.1781C50.9201 12.6877 49.4105 12.776 47.9122 12.3291C46.5716 11.9273 45.3924 12.04 44.2321 12.6821C42.6398 13.5627 41.3499 12.9149 40.1445 11.9217C39.3258 11.2476 38.6574 10.3952 37.6322 9.86756C38.8959 9.4789 40.0337 9.72111 41.1265 10.0722C43.973 10.9866 46.7593 10.7407 49.542 9.81499ZM47.4766 4.53512C47.8577 4.45439 48.2464 4.33046 48.6877 4.50321C48.0699 5.43263 48.1582 6.45781 48.2351 7.46233C48.2933 8.22277 47.9929 8.78793 47.5667 9.37187C46.902 10.2825 45.9351 9.98585 45.0169 10.1605C45.2047 9.65915 45.3943 9.23668 45.4807 8.77479C45.6853 7.68577 45.4337 6.67373 44.9193 5.7368C44.6808 5.30307 44.8892 5.18478 45.199 5.07776C45.9407 4.81864 46.7143 4.6966 47.4766 4.53512ZM43.3064 2.20125C44.0349 1.82948 44.801 1.64923 45.614 1.7525C46.2524 1.83323 46.412 2.12989 46.0965 2.68943C45.783 3.2452 45.4713 3.79722 45.2178 4.38304C45.0864 4.68533 44.6864 4.64215 44.4705 4.91253C44.0424 4.07886 43.6387 3.28275 43.2238 2.49228C43.1468 2.3477 43.1487 2.28198 43.3064 2.20125ZM37.3581 2.53359C37.3712 2.35521 37.4426 1.99659 37.4126 1.64923C37.3731 1.20611 37.6041 1.06529 37.9608 0.943242C38.6856 0.693519 39.3559 0.864382 40.0224 1.13664C40.4712 1.32064 40.8749 1.58163 41.2673 1.86515C41.4795 2.01912 41.4307 2.09798 41.2354 2.21627C40.3923 2.72322 39.4423 2.89221 38.5016 3.08748C38.3082 3.12691 38.111 3.1532 37.9158 3.18887C37.3356 3.29214 37.3356 3.29402 37.3581 2.53359ZM37.6735 3.76906C38.8696 3.56252 40.0975 3.42733 41.1941 2.83213C41.5302 2.65 41.8625 2.45848 42.193 2.26508C42.3282 2.18622 42.4427 2.13741 42.5309 2.32329C43.2519 3.86294 44.2227 5.27866 44.8254 6.88027C45.2347 7.97117 44.9587 9.00198 44.5212 10.014C44.4743 10.1248 44.4649 10.121 44.1119 10.106C43.1825 10.0647 42.2831 9.86005 41.3987 9.59343C40.1614 9.22166 38.9128 9.0001 37.6228 9.28362C37.5102 9.30803 37.4445 9.3362 37.4088 9.1935C37.1121 7.99558 36.331 7.10934 35.4861 6.27568C35.2082 5.99967 35.2495 5.7706 35.3772 5.46455C35.8034 4.42998 36.5939 3.95494 37.6735 3.76906ZM32.0632 1.27183C32.3392 0.851239 32.8274 0.759234 33.2687 0.742336C34.2638 0.706661 35.2552 0.663477 36.2447 0.537676C36.6671 0.483225 36.8887 0.697274 36.8868 1.12725C36.8849 1.83887 36.8436 2.54861 36.8286 3.26022C36.8267 3.38039 36.7911 3.43484 36.6803 3.47239C35.8785 3.73902 35.3096 4.24034 35.058 5.07212C35.0186 5.1998 34.8984 5.30307 34.7895 5.45328C34.1417 4.68158 33.3269 4.12768 32.542 3.54187C32.0463 3.1701 31.7309 1.77878 32.0632 1.27183ZM26.7834 4.29667C27.2077 4.25536 27.5663 4.09389 27.8686 3.77469C28.6384 2.96168 29.5754 2.81335 30.6062 3.16447C32.0613 3.65828 33.2104 4.61398 34.2657 5.68235C34.8965 6.32074 35.4711 7.01546 36.0532 7.69891C36.4155 8.12325 36.6521 8.62458 36.8436 9.15031C36.9263 9.37375 36.8511 9.45261 36.6484 9.50143C36.0738 9.63849 35.5424 9.54086 35.0824 9.17848C34.1305 8.42743 33.3381 7.54683 32.9175 6.37707C32.7223 5.83444 32.4218 5.35752 32.0031 4.95384C31.0981 4.08074 30.0222 3.8742 28.8656 4.37177C28.3944 4.57456 27.9212 4.77171 27.4124 4.85057C26.8059 4.94632 26.2332 4.86371 25.6455 4.40181C26.1018 4.35863 26.4435 4.33047 26.7834 4.29667ZM27.2941 15.4291C27.5776 14.2105 28.0639 13.0501 28.3023 11.8203C28.5915 10.3295 28.1334 9.13341 26.9279 8.22277C26.3609 7.79467 25.7788 7.38535 25.2062 6.96476C24.9395 6.76949 24.7123 6.53479 24.5452 6.24751C24.2786 5.78938 24.3011 5.39695 24.6147 4.982C24.9114 4.5877 25.0334 4.5877 25.4165 4.89187C26.16 5.48332 27.0106 5.51149 27.8836 5.28805C28.2385 5.19793 28.5859 5.06086 28.922 4.91253C30.5405 4.1934 31.7215 4.95383 32.3054 6.34515C32.833 7.60128 33.5841 8.65087 34.6299 9.5033C34.8045 9.646 34.9942 9.7718 35.1857 9.91262C33.755 10.5773 32.6077 11.5668 31.4755 12.6277C29.7031 14.2856 28.9238 16.2402 29.2224 18.7055C28.7511 18.4257 28.4281 18.0502 28.032 17.7798C27.1589 17.1752 27.0763 16.3698 27.2941 15.4291ZM16.9615 19.9748C16.2969 19.1486 15.9852 18.1535 15.6679 17.1677C15.2848 15.9755 14.7779 14.8827 13.5893 14.2725C13.5255 14.2405 13.4654 14.2011 13.3584 14.141C14.7478 13.3618 16.1297 13.1215 17.6225 13.2304C20.9759 13.4763 23.7472 14.9991 26.3008 17.0382C27.2021 17.7573 28.0883 18.4971 28.9727 19.2369C29.1529 19.3871 29.2975 19.5824 29.5134 19.8171C29.0759 19.742 28.7661 19.5692 28.4488 19.4284C26.1619 18.4051 23.9913 18.7543 21.9109 19.9954C21.2388 20.3972 20.6079 20.8704 19.8155 21C18.6796 21.1858 17.7013 20.8967 16.9615 19.9748Z" fill="#36310D"/>
<path d="M1.46749 83.4405C2.27796 83.4405 2.93498 82.7835 2.93498 81.973C2.93498 81.1625 2.27796 80.5055 1.46749 80.5055C0.657017 80.5055 0 81.1625 0 81.973C0 82.7835 0.657017 83.4405 1.46749 83.4405Z" fill="#36310D"/>
<path d="M79.2443 83.4405C80.0548 83.4405 80.7118 82.7835 80.7118 81.973C80.7118 81.1625 80.0548 80.5055 79.2443 80.5055C78.4339 80.5055 77.7769 81.1625 77.7769 81.973C77.7769 82.7835 78.4339 83.4405 79.2443 83.4405Z" fill="#36310D"/>
<path d="M28.966 63.409C28.966 63.4383 28.9513 63.475 28.922 63.519C27.0887 65.9536 25.7027 68.2416 24.764 70.383C25.7027 70.8376 26.172 71.3216 26.172 71.835C26.172 71.9523 26.128 72.077 26.04 72.209C25.9667 72.341 25.8787 72.407 25.776 72.407C25.6 72.407 25.512 72.319 25.512 72.143C25.512 72.099 25.534 72.0476 25.578 71.989C25.622 71.9303 25.644 71.8716 25.644 71.813C25.644 71.5196 25.2773 71.2043 24.544 70.867C23.752 72.7296 23.356 74.1083 23.356 75.003C23.356 75.531 23.51 75.795 23.818 75.795C23.95 75.795 24.1333 75.707 24.368 75.531C24.6027 75.3696 24.7347 75.289 24.764 75.289C24.896 75.289 24.962 75.355 24.962 75.487C24.962 75.6483 24.808 75.8096 24.5 75.971C24.2067 76.147 23.9647 76.235 23.774 76.235C23.0993 76.235 22.762 75.7876 22.762 74.893C22.762 73.969 23.1507 72.5463 23.928 70.625C23.1507 70.3756 22.1313 70.185 20.87 70.053C19.9313 71.813 18.6187 73.3896 16.932 74.783C15.0107 76.3816 13.1773 77.181 11.432 77.181C10.42 77.181 9.55467 76.939 8.836 76.455C8.01467 75.8976 7.604 75.135 7.604 74.167C7.604 72.363 9.09267 71.043 12.07 70.207C14.0793 69.6496 16.3087 69.371 18.758 69.371C19.286 69.371 19.748 69.3856 20.144 69.415C20.9067 67.523 21.288 66.1223 21.288 65.213C21.288 64.641 21.1047 64.355 20.738 64.355C20.5473 64.355 20.3053 64.4356 20.012 64.597C19.7187 64.7583 19.5573 64.839 19.528 64.839C19.44 64.839 19.396 64.773 19.396 64.641C19.396 64.4503 19.638 64.2596 20.122 64.069C20.562 63.893 20.914 63.805 21.178 63.805C21.8527 63.805 22.19 64.2816 22.19 65.235C22.19 66.247 21.838 67.6696 21.134 69.503C22.4247 69.679 23.422 69.8843 24.126 70.119C24.346 69.6056 24.5807 69.0776 24.83 68.535C25.9153 66.159 26.8467 64.5236 27.624 63.629C27.8147 63.409 28.1667 63.299 28.68 63.299C28.8707 63.299 28.966 63.3356 28.966 63.409ZM19.858 69.987C19.5207 69.9576 19.1393 69.943 18.714 69.943C16.4993 69.943 14.446 70.207 12.554 70.735C9.76733 71.5123 8.374 72.7076 8.374 74.321C8.374 75.0836 8.71133 75.6776 9.386 76.103C9.958 76.4696 10.64 76.653 11.432 76.653C13.016 76.653 14.6733 75.8976 16.404 74.387C17.8707 73.0963 19.022 71.6296 19.858 69.987ZM33.532 72.605C33.532 72.6783 33.488 72.781 33.4 72.913C32.7547 73.9543 32.146 74.6216 31.574 74.915C31.31 75.047 31.046 75.113 30.782 75.113C29.8874 75.113 29.44 74.4823 29.44 73.221C29.44 73.0156 29.4547 72.7956 29.484 72.561C28.5014 74.3063 27.6287 75.179 26.866 75.179C26.4114 75.179 26.184 74.9296 26.184 74.431C26.184 73.6683 26.5507 72.7516 27.284 71.681C28.0174 70.5956 28.7287 69.9356 29.418 69.701C29.6674 69.5983 29.9094 69.547 30.144 69.547C30.672 69.547 31.0534 69.7303 31.288 70.097C31.332 70.1703 31.354 70.2216 31.354 70.251C31.354 70.2656 31.3027 70.2876 31.2 70.317C31.0974 70.3463 31.024 70.3976 30.98 70.471C30.628 71.043 30.452 71.901 30.452 73.045C30.452 74.101 30.6794 74.629 31.134 74.629C31.4567 74.629 31.9114 74.277 32.498 73.573C33.0994 72.8543 33.422 72.495 33.466 72.495C33.51 72.495 33.532 72.5316 33.532 72.605ZM30.298 70.295C30.2394 70.2803 30.1734 70.273 30.1 70.273C29.5134 70.273 28.9047 70.647 28.274 71.395C27.3794 72.4803 26.932 73.3676 26.932 74.057C26.932 74.365 27.0347 74.519 27.24 74.519C27.5627 74.519 27.9807 74.1816 28.494 73.507C29.2127 72.5976 29.814 71.527 30.298 70.295ZM41.9819 72.649C41.9819 72.7076 41.9673 72.7516 41.9379 72.781C41.5713 73.2943 41.1606 73.771 40.7059 74.211C40.0753 74.7976 39.5473 75.091 39.1219 75.091C38.4326 75.091 38.0879 74.3283 38.0879 72.803C38.0879 72.5683 38.0953 72.3043 38.1099 72.011C37.5819 72.4803 36.9879 73.3236 36.3279 74.541C36.1079 74.9516 35.8659 75.157 35.6019 75.157C35.5139 75.157 35.4479 75.1276 35.4039 75.069C35.3599 74.9076 35.3379 74.7023 35.3379 74.453C35.3379 74.0276 35.4333 73.2503 35.6239 72.121C35.7266 71.549 35.7779 71.1823 35.7779 71.021C35.7779 70.9036 35.7559 70.845 35.7119 70.845C35.4626 71.065 35.0593 71.5416 34.5019 72.275C33.9006 73.067 33.2553 73.9983 32.5659 75.069C32.4779 75.201 32.4046 75.267 32.3459 75.267C32.2286 75.267 32.1699 75.135 32.1699 74.871C32.1699 74.7976 32.1773 74.739 32.1919 74.695C32.5293 73.903 32.8739 72.7883 33.2259 71.351C33.2553 71.1456 33.3139 70.8523 33.4019 70.471C33.4313 70.3683 33.5266 70.2656 33.6879 70.163C33.8639 70.0603 34.0106 70.009 34.1279 70.009C34.2306 70.009 34.2819 70.053 34.2819 70.141C34.2819 70.2876 33.9373 71.4023 33.2479 73.485C33.7759 72.781 34.3186 72.055 34.8759 71.307C35.0519 71.0723 35.3159 70.7203 35.6679 70.251C35.8879 69.987 36.1153 69.855 36.3499 69.855C36.5846 69.855 36.7019 69.987 36.7019 70.251C36.7019 70.4416 36.6506 70.823 36.5479 71.395C36.4453 71.9523 36.3279 72.7736 36.1959 73.859C36.6066 73.2723 37.2446 72.4143 38.1099 71.285C38.3446 71.0063 38.5793 70.867 38.8139 70.867C39.0339 70.867 39.1439 71.0063 39.1439 71.285C39.1439 71.5196 39.1073 71.8716 39.0339 72.341C38.9606 72.7956 38.9239 73.1403 38.9239 73.375C38.9239 74.1376 39.1219 74.519 39.5179 74.519C40.0753 74.519 40.7866 73.903 41.6519 72.671C41.7399 72.5243 41.8133 72.451 41.8719 72.451C41.9453 72.451 41.9819 72.517 41.9819 72.649ZM39.7599 68.557C37.9119 68.117 36.5553 68.139 35.6899 68.623C35.5286 68.711 35.3966 68.8503 35.2939 69.041C35.2499 69.1436 35.2279 69.283 35.2279 69.459C35.2279 69.635 35.2059 69.767 35.1619 69.855L35.0739 69.921C34.9273 70.0236 34.8613 69.921 34.8759 69.613C34.9053 69.2903 34.9786 69.019 35.0959 68.799C35.2426 68.4616 35.4919 68.205 35.8439 68.029C36.4893 67.6476 37.3399 67.501 38.3959 67.589C38.6599 67.589 39.5473 67.7136 41.0579 67.963C41.9819 68.1243 42.5906 68.1243 42.8839 67.963C43.0599 67.8603 43.1846 67.7283 43.2579 67.567C43.3459 67.3763 43.3606 67.2003 43.3019 67.039C43.2579 66.8776 43.2653 66.7383 43.3239 66.621C43.3533 66.6063 43.3679 66.599 43.3679 66.599C43.4853 66.5256 43.5366 66.6723 43.5219 67.039C43.5219 67.4056 43.4779 67.677 43.3899 67.853C43.1699 68.2783 42.9353 68.5716 42.6859 68.733C42.3193 68.9383 41.7399 68.975 40.9479 68.843C40.8599 68.799 40.6839 68.7623 40.4199 68.733C40.3026 68.733 40.0826 68.6743 39.7599 68.557ZM48.2703 72.605C48.2703 72.6783 48.2263 72.781 48.1383 72.913C47.493 73.9543 46.8843 74.6216 46.3123 74.915C46.0483 75.047 45.7843 75.113 45.5203 75.113C44.6256 75.113 44.1783 74.4823 44.1783 73.221C44.1783 73.0156 44.193 72.7956 44.2223 72.561C43.2396 74.3063 42.367 75.179 41.6043 75.179C41.1496 75.179 40.9223 74.9296 40.9223 74.431C40.9223 73.6683 41.289 72.7516 42.0223 71.681C42.7556 70.5956 43.467 69.9356 44.1563 69.701C44.4056 69.5983 44.6476 69.547 44.8823 69.547C45.4103 69.547 45.7916 69.7303 46.0263 70.097C46.0703 70.1703 46.0923 70.2216 46.0923 70.251C46.0923 70.2656 46.041 70.2876 45.9383 70.317C45.8356 70.3463 45.7623 70.3976 45.7183 70.471C45.3663 71.043 45.1903 71.901 45.1903 73.045C45.1903 74.101 45.4176 74.629 45.8723 74.629C46.195 74.629 46.6496 74.277 47.2363 73.573C47.8376 72.8543 48.1603 72.495 48.2043 72.495C48.2483 72.495 48.2703 72.5316 48.2703 72.605ZM45.0363 70.295C44.9776 70.2803 44.9116 70.273 44.8383 70.273C44.2516 70.273 43.643 70.647 43.0123 71.395C42.1176 72.4803 41.6703 73.3676 41.6703 74.057C41.6703 74.365 41.773 74.519 41.9783 74.519C42.301 74.519 42.719 74.1816 43.2323 73.507C43.951 72.5976 44.5523 71.527 45.0363 70.295ZM52.7822 71.329C52.2982 71.9596 51.8362 72.5536 51.3962 73.111C50.9562 73.6683 50.5895 74.0936 50.2962 74.387C49.8855 74.783 49.4969 75.0396 49.1302 75.157C48.7635 75.2743 48.4555 75.267 48.2062 75.135C47.9569 75.0176 47.7735 74.783 47.6562 74.431C47.5535 74.0643 47.5535 73.595 47.6562 73.023C47.7002 72.7443 47.7809 72.5536 47.8982 72.451C48.0155 72.3483 48.1402 72.297 48.2722 72.297C48.4042 72.297 48.5215 72.341 48.6242 72.429C48.7269 72.5023 48.7929 72.5903 48.8222 72.693C48.5875 73.2943 48.4702 73.7783 48.4702 74.145C48.4849 74.5116 48.5875 74.7316 48.7782 74.805C48.9835 74.8783 49.2622 74.7976 49.6142 74.563C49.9662 74.3136 50.3622 73.881 50.8022 73.265C50.8902 73.1476 51.0515 72.9276 51.2862 72.605C51.5355 72.2676 51.8729 71.8643 52.2982 71.395C52.4449 71.219 52.5842 71.0576 52.7162 70.911C52.8482 70.7643 53.0609 70.5296 53.3542 70.207C53.4569 70.1043 53.5742 70.053 53.7062 70.053C54.0435 70.053 54.2122 70.2216 54.2122 70.559C54.2122 70.6323 54.1829 70.7203 54.1242 70.823C53.3029 72.1723 52.8922 73.243 52.8922 74.035C52.8922 74.5923 53.1562 74.871 53.6842 74.871C54.0949 74.871 54.5349 74.6583 55.0042 74.233C55.3269 73.9543 55.6715 73.5583 56.0382 73.045C56.3462 72.6196 56.5222 72.407 56.5662 72.407C56.6102 72.407 56.6322 72.451 56.6322 72.539C56.6322 72.6416 56.5882 72.7663 56.5002 72.913C55.5029 74.5703 54.4689 75.399 53.3982 75.399C52.5622 75.399 52.1442 74.871 52.1442 73.815C52.1442 72.891 52.3569 72.0623 52.7822 71.329ZM58.0503 71.505C57.801 72.0036 57.5737 72.517 57.3683 73.045C57.163 73.573 57.0603 73.9763 57.0603 74.255C57.0603 74.7683 57.3023 75.025 57.7863 75.025C58.0943 75.025 58.439 74.9003 58.8203 74.651C59.2163 74.387 59.561 74.0863 59.8543 73.749C59.473 73.7783 59.1503 73.7123 58.8863 73.551C58.637 73.3896 58.505 73.0743 58.4903 72.605C58.461 72.341 58.5123 72.0916 58.6443 71.857C58.7763 71.6076 58.945 71.4023 59.1503 71.241C59.3703 71.065 59.605 70.9403 59.8543 70.867C60.1183 70.7936 60.353 70.7936 60.5583 70.867C60.7783 70.9256 60.9543 71.0723 61.0863 71.307C61.2183 71.5416 61.2697 71.879 61.2403 72.319C61.2257 72.5243 61.1817 72.7296 61.1083 72.935C61.4457 72.7736 61.7683 72.583 62.0763 72.363C62.3843 72.1283 62.6483 71.8863 62.8683 71.637L63.1543 71.703C63.0957 71.8496 62.9857 72.011 62.8243 72.187C62.6777 72.3483 62.4943 72.5096 62.2743 72.671C62.069 72.8323 61.8417 72.9863 61.5923 73.133C61.343 73.2796 61.0863 73.4043 60.8223 73.507C60.6463 73.771 60.4337 74.013 60.1843 74.233C59.935 74.4383 59.6637 74.6216 59.3703 74.783C59.077 74.9443 58.769 75.0763 58.4463 75.179C58.1383 75.2816 57.8377 75.3476 57.5443 75.377C56.6937 75.465 56.2683 75.0396 56.2683 74.101C56.2683 73.705 56.3417 73.265 56.4883 72.781C56.635 72.297 56.8183 71.813 57.0383 71.329C57.273 70.8303 57.5223 70.361 57.7863 69.921C58.0503 69.4663 58.2997 69.085 58.5343 68.777C58.593 68.7036 58.6737 68.6743 58.7763 68.689C58.879 68.7036 58.9817 68.7476 59.0843 68.821C59.187 68.8796 59.2677 68.9603 59.3263 69.063C59.3997 69.151 59.4363 69.2316 59.4363 69.305C59.4363 69.393 59.407 69.4736 59.3483 69.547C59.3043 69.6203 59.2163 69.7523 59.0843 69.943C58.967 70.119 58.835 70.317 58.6883 70.537C58.5563 70.7423 58.4243 70.9403 58.2923 71.131C58.175 71.3216 58.0943 71.4463 58.0503 71.505ZM60.3823 73.001C60.5437 72.6783 60.6097 72.4216 60.5803 72.231C60.5657 72.0403 60.4923 71.901 60.3603 71.813C60.2283 71.7103 60.067 71.6663 59.8763 71.681C59.6857 71.6956 59.5097 71.7543 59.3483 71.857C59.187 71.945 59.0623 72.077 58.9743 72.253C58.8863 72.4143 58.8863 72.6123 58.9743 72.847C59.0477 73.0816 59.1943 73.2283 59.4143 73.287C59.649 73.3456 59.9203 73.3383 60.2283 73.265C60.2577 73.221 60.2797 73.177 60.2943 73.133C60.3237 73.089 60.353 73.045 60.3823 73.001ZM68.0516 71.593C68.3742 71.6223 68.5356 71.791 68.5356 72.099C68.5356 72.1283 68.5062 72.2163 68.4476 72.363C68.2862 72.7003 68.1322 72.9936 67.9856 73.243C67.8536 73.4923 67.7876 73.7563 67.7876 74.035C67.7876 74.5923 68.0516 74.871 68.5796 74.871C68.9902 74.871 69.4302 74.6583 69.8996 74.233C70.2222 73.9543 70.5669 73.5583 70.9336 73.045C71.2416 72.6196 71.4176 72.407 71.4616 72.407C71.5056 72.407 71.5276 72.451 71.5276 72.539C71.5276 72.6416 71.4836 72.7663 71.3956 72.913C70.3982 74.5703 69.3642 75.399 68.2936 75.399C67.4576 75.399 67.0396 74.871 67.0396 73.815C67.0396 73.7123 67.0396 73.617 67.0396 73.529C67.0396 73.4263 67.0469 73.331 67.0616 73.243C67.1202 73.0376 67.2009 72.8176 67.3036 72.583C67.2156 72.6123 67.1276 72.6343 67.0396 72.649C66.9516 72.6636 66.8709 72.671 66.7976 72.671C66.5482 73.0083 66.2989 73.331 66.0496 73.639C65.8002 73.9323 65.6389 74.1156 65.5656 74.189C65.1549 74.585 64.7516 74.8563 64.3556 75.003C63.9596 75.135 63.6149 75.1496 63.3216 75.047C63.0282 74.9443 62.8082 74.7243 62.6616 74.387C62.5296 74.0496 62.5149 73.595 62.6176 73.023C62.6616 72.7443 62.7422 72.5536 62.8596 72.451C62.9769 72.3483 63.1016 72.297 63.2336 72.297C63.3656 72.297 63.4829 72.341 63.5856 72.429C63.6882 72.5023 63.7542 72.5903 63.7836 72.693C63.5489 73.2943 63.4316 73.7783 63.4316 74.145C63.4462 74.5116 63.5489 74.7316 63.7396 74.805C63.9449 74.8783 64.2236 74.7976 64.5756 74.563C64.9276 74.3136 65.3236 73.881 65.7636 73.265C65.8516 73.1476 65.9836 72.957 66.1596 72.693C65.7196 72.6783 65.3236 72.5756 64.9716 72.385C64.6342 72.1943 64.4069 71.9523 64.2896 71.659C64.1722 71.351 64.1942 71.0283 64.3556 70.691C64.5169 70.339 64.8762 70.0016 65.4336 69.679C65.8296 69.459 66.1669 69.349 66.4456 69.349C66.7242 69.3343 66.9442 69.4003 67.1056 69.547C67.2816 69.679 67.3989 69.8696 67.4576 70.119C67.5309 70.3536 67.5602 70.6103 67.5456 70.889C67.5309 71.1676 67.4796 71.439 67.3916 71.703C67.3036 71.9523 67.1789 72.165 67.0176 72.341C67.0909 72.341 67.1642 72.341 67.2376 72.341C67.3109 72.341 67.3842 72.3263 67.4576 72.297C67.6629 71.9303 67.8096 71.725 67.8976 71.681C67.9856 71.6223 68.0369 71.593 68.0516 71.593ZM66.9516 70.295C66.3356 70.0896 65.8882 70.0603 65.6096 70.207C65.3456 70.339 65.2062 70.5443 65.1916 70.823C65.1769 71.087 65.2796 71.373 65.4996 71.681C65.7342 71.9743 66.0496 72.1723 66.4456 72.275C66.5776 72.0696 66.6949 71.857 66.7976 71.637C66.9149 71.417 66.9956 71.219 67.0396 71.043C67.0982 70.8523 67.1202 70.691 67.1056 70.559C67.1056 70.4123 67.0542 70.3243 66.9516 70.295Z" fill="#36310D"/>
<path d="M13.484 86.012H17.228C17.576 86.012 17.768 85.82 17.768 85.472V80.12C17.768 80.048 17.72 80 17.648 80H17.204C17.132 80 17.084 80.048 17.084 80.12V85.352H15.068V80.12C15.068 80.048 15.02 80 14.948 80H14.504C14.432 80 14.384 80.048 14.384 80.12V85.352H13.484C12.776 85.352 12.344 84.848 12.344 84.128V80.12C12.344 80.048 12.296 80 12.224 80H11.78C11.708 80 11.66 80.048 11.66 80.12V84.128C11.66 85.208 12.392 86.012 13.484 86.012ZM25.3482 80H24.9042C24.8322 80 24.7842 80.048 24.7842 80.12V83.996C24.7842 84.716 24.3522 85.22 23.6442 85.22C22.9362 85.22 22.5042 84.716 22.5042 83.996V80.12C22.5042 80.048 22.4562 80 22.3842 80H21.9402C21.8682 80 21.8202 80.048 21.8202 80.12V83.996C21.8202 85.076 22.5522 85.88 23.6442 85.88C24.1002 85.88 24.4962 85.64 24.7842 85.268V86.636C24.7842 87.404 24.3642 87.86 23.6442 87.86C22.9482 87.86 22.5282 87.404 22.5042 86.636C22.5042 86.552 22.4562 86.516 22.3842 86.516H21.9402C21.8682 86.516 21.8202 86.564 21.8202 86.636C21.8682 87.764 22.6002 88.52 23.6442 88.52C24.7362 88.52 25.4682 87.764 25.4682 86.636V80.12C25.4682 80.048 25.4202 80 25.3482 80ZM29.7566 86H30.2006C30.2726 86 30.3206 85.952 30.3206 85.88V81.764C30.3206 81.02 30.7046 80.636 31.4246 80.636H32.1326C32.2046 80.636 32.2526 80.588 32.2526 80.516V80.096C32.2526 80.024 32.2046 79.976 32.1326 79.976H31.4246C30.2966 79.976 29.6366 80.636 29.6366 81.764V85.88C29.6366 85.952 29.6846 86 29.7566 86ZM37.5618 86.108C38.6658 86.108 39.3858 85.316 39.3858 84.248V81.74C39.3858 80.684 38.6778 79.88 37.5738 79.88C36.5418 79.88 35.8698 80.624 35.8098 81.644C35.8098 81.716 35.8578 81.764 35.9298 81.764H36.3738C36.4458 81.764 36.4818 81.728 36.4938 81.644C36.5418 80.984 36.9378 80.54 37.5738 80.54C38.2818 80.54 38.7018 81.044 38.7018 81.74V82.52H37.5378C36.4458 82.52 35.7138 83.3 35.7138 84.248C35.7138 85.316 36.4458 86.108 37.5618 86.108ZM37.5618 85.448C36.8298 85.448 36.3978 84.956 36.3978 84.248C36.3978 83.66 36.8298 83.18 37.5378 83.18H38.7018V84.248C38.7018 84.956 38.2818 85.448 37.5618 85.448ZM45.1483 79.88C44.0443 79.88 43.3123 80.684 43.3123 81.764V88.28C43.3123 88.352 43.3603 88.4 43.4323 88.4H43.8763C43.9483 88.4 43.9963 88.352 43.9963 88.28V85.52C44.2843 85.88 44.6803 86.12 45.2563 86.12C46.2523 86.12 46.9843 85.316 46.9843 84.236V81.764C46.9843 80.684 46.2523 79.88 45.1483 79.88ZM46.3003 84.236C46.3003 84.956 45.8683 85.46 45.1483 85.46C44.4283 85.46 43.9963 84.956 43.9963 84.236V81.764C43.9963 81.044 44.4283 80.54 45.1483 80.54C45.8683 80.54 46.3003 81.044 46.3003 81.764V84.236ZM52.8018 86.024H53.8818C54.2298 86.024 54.4218 85.832 54.4218 85.484V80.12C54.4218 80.048 54.3738 80 54.3018 80H53.8578C53.7858 80 53.7378 80.048 53.7378 80.12V85.364H52.8018C52.0938 85.364 51.6018 84.92 51.6018 84.224V80.12C51.6018 80.048 51.5538 80 51.4818 80H51.0378C50.9658 80 50.9178 80.048 50.9178 80.12V84.224C50.9178 85.28 51.7218 86.024 52.8018 86.024ZM61.5096 80.12V82.556H59.3976V80.12C59.3976 80.048 59.3496 80 59.2776 80H58.8336C58.7616 80 58.7136 80.048 58.7136 80.12V85.88C58.7136 85.952 58.7616 86 58.8336 86H59.2776C59.3496 86 59.3976 85.952 59.3976 85.88V83.204H61.5096V85.88C61.5096 85.952 61.5576 86 61.6296 86H62.0736C62.1456 86 62.1936 85.952 62.1936 85.88V80.12C62.1936 80.048 62.1456 80 62.0736 80H61.6296C61.5576 80 61.5096 80.048 61.5096 80.12ZM66.4831 86H66.9271C66.9991 86 67.0471 85.952 67.0471 85.88V81.764C67.0471 81.02 67.4311 80.636 68.1511 80.636H68.8591C68.9311 80.636 68.9791 80.588 68.9791 80.516V80.096C68.9791 80.024 68.9311 79.976 68.8591 79.976H68.1511C67.0231 79.976 66.3631 80.636 66.3631 81.764V85.88C66.3631 85.952 66.4111 86 66.4831 86Z" fill="#36310D"/>
</svg>
