<svg width="1440" height="2433" viewBox="0 0 1440 2433" fill="none" xmlns="http://www.w3.org/2000/svg">
<path d="M1602 -44H-130V2433H1602V-44Z" fill="url(#paint0_linear)"/>
<path d="M109.437 -92.2845L62.2652 -10.3804L111.647 75.3303H210.443L259.856 -10.3804L212.685 -92.2845H109.437Z" fill="url(#paint1_linear)"/>
<path d="M211.252 -89.8196L257.023 -10.3804L209.042 72.8965H113.08L65.0986 -10.3804L110.869 -89.8196H211.252ZM212.685 -92.2845H109.437L62.2652 -10.3804L111.647 75.3614H210.443L259.825 -10.3804L212.685 -92.2845Z" fill="#F5E13D"/>
<path d="M417.997 -92.2845L370.826 -10.3804L420.208 75.3303H519.003L568.416 -10.3804L521.245 -92.2845H417.997Z" fill="url(#paint2_linear)"/>
<path d="M519.812 -89.8196L565.583 -10.3804L517.602 72.8965H421.64L373.659 -10.3804L419.429 -89.8196H519.812ZM521.245 -92.2845H417.997L370.826 -10.3804L420.208 75.3614H519.003L568.385 -10.3804L521.245 -92.2845Z" fill="#F5E13D"/>
<path d="M726.558 -92.2845L679.386 -10.3804L728.768 75.3303H827.563L876.977 -10.3804L829.805 -92.2845H726.558Z" fill="url(#paint3_linear)"/>
<path d="M828.373 -89.8196L874.143 -10.3804L826.162 72.8965H730.2L682.219 -10.3804L727.99 -89.8196H828.373ZM829.805 -92.2845H726.558L679.386 -10.4116L728.799 75.3303H827.595L876.977 -10.4116L829.805 -92.2845Z" fill="#F5E13D"/>
<path d="M56.162 -6.44897H-42.6334L-78.9694 56.6405V101.914L-42.6334 165.003H56.162L105.575 79.2929L56.162 -6.44897Z" fill="url(#paint4_linear)"/>
<path d="M54.7614 -4.01525L102.742 79.2617L54.7614 162.57H-41.2006L-76.5091 101.259V57.2958L-41.2006 -4.01525H54.7614ZM56.1625 -6.44897H-42.6328L-79 56.6718V101.945L-42.6328 165.066H56.1625L105.545 79.3241L56.1625 -6.44897Z" fill="#F5E13D"/>
<path d="M56.162 171.556H-42.6334L-78.9694 234.677V279.919L-42.6334 343.039H56.162L105.575 257.298L56.162 171.556Z" fill="url(#paint5_linear)"/>
<path d="M54.7614 174.021L102.742 257.298L54.7614 340.575H-41.2006L-76.5091 279.264V235.332L-41.2006 174.021H54.7614ZM56.1625 171.556H-42.6328L-79 234.677V279.95L-42.6328 343.071H56.1625L105.545 257.329L56.1625 171.556Z" fill="#F5E13D"/>
<path d="M210.443 82.5066H111.647L62.2652 168.248L111.647 253.99H210.443L259.856 168.248L210.443 82.5066Z" fill="url(#paint6_linear)"/>
<path d="M209.042 84.9403L257.023 168.248L209.042 251.525H113.08L65.0986 168.248L113.08 84.9403H209.042ZM210.443 82.5066H111.647L62.2652 168.248L111.647 253.99H210.443L259.856 168.248L210.443 82.5066Z" fill="#F5E13D"/>
<path d="M210.443 260.511H111.647L62.2652 346.253L111.647 431.995H210.443L259.856 346.253L210.443 260.511Z" fill="url(#paint7_linear)"/>
<path d="M209.042 262.976L257.023 346.253L209.042 429.53H113.08L65.0986 346.253L113.08 262.976H209.042ZM210.443 260.511H111.647L62.2652 346.253L111.647 431.995H210.443L259.825 346.253L210.443 260.511Z" fill="#F5E13D"/>
<path d="M364.723 -6.44897H265.927L216.545 79.2929L265.927 165.003H364.723L414.136 79.2929L364.723 -6.44897Z" fill="url(#paint8_linear)"/>
<path d="M363.322 -4.01525L411.303 79.2617L363.322 162.57H267.36L219.379 79.2929L267.36 -3.98405H363.322V-4.01525ZM364.723 -6.44897H265.927L216.545 79.2929L265.927 165.035H364.723L414.105 79.2929L364.723 -6.44897Z" fill="#F5E13D"/>
<path d="M364.723 171.556H265.927L216.545 257.298L265.927 343.04H364.723L414.136 257.298L364.723 171.556Z" fill="url(#paint9_linear)"/>
<path d="M363.322 174.021L411.303 257.298L363.322 340.575H267.36L219.379 257.298L267.36 174.021H363.322ZM364.723 171.556H265.927L216.545 257.298L265.927 343.04H364.723L414.105 257.298L364.723 171.556Z" fill="#F5E13D"/>
<path d="M519.003 82.5066H420.208L370.826 168.248L420.208 253.99H519.003L568.416 168.248L519.003 82.5066Z" fill="url(#paint10_linear)"/>
<path d="M517.602 84.9403L565.583 168.248L517.602 251.525H421.64L373.659 168.248L421.64 84.9715H517.602V84.9403ZM519.003 82.5066H420.208L370.826 168.248L420.208 253.99H519.003L568.416 168.248L519.003 82.5066Z" fill="#F5E13D"/>
<path d="M519.003 260.511H420.208L370.826 346.253L420.208 431.995H519.003L568.416 346.253L519.003 260.511Z" fill="url(#paint11_linear)"/>
<path d="M517.602 262.976L565.583 346.253L517.602 429.53H421.64L373.659 346.253L421.64 262.976H517.602ZM519.003 260.511H420.208L370.826 346.253L420.208 431.995H519.003L568.416 346.253L519.003 260.511Z" fill="#F5E13D"/>
<path d="M673.283 -6.44897H574.488L525.106 79.2929L574.488 165.003H673.283L722.697 79.2929L673.283 -6.44897Z" fill="url(#paint12_linear)"/>
<path d="M671.882 -4.01525L719.863 79.2617L671.882 162.539H575.92L527.939 79.2617L575.92 -4.01525H671.882ZM673.283 -6.44897H574.488L525.106 79.2929L574.519 165.035H673.315L722.728 79.2929L673.283 -6.44897Z" fill="#F5E13D"/>
<path d="M1476.19 315.208L1444.68 260.511H1345.89L1296.51 346.253L1345.89 431.995H1444.68L1476.19 377.299V315.208Z" fill="url(#paint13_linear)"/>
<path d="M1443.28 262.976L1473.77 315.863V376.644L1443.28 429.53H1347.32L1299.34 346.253L1347.32 262.976H1443.28ZM1444.68 260.511H1345.89L1296.51 346.253L1345.89 431.995H1444.68L1476.19 377.299V315.208L1444.68 260.511Z" fill="#F5E13D"/>
<path d="M56.162 350.185H-42.6334L-78.9694 413.305V458.548L-42.6334 521.668H56.162L105.575 435.926L56.162 350.185Z" fill="url(#paint14_linear)"/>
<path d="M54.7614 352.65L102.742 435.926L54.7614 519.203H-41.2006L-76.5091 457.892V413.961L-41.2006 352.65H54.7614ZM56.1625 350.185H-42.6328L-79 413.305V458.579L-42.6328 521.7H56.1625L105.545 435.958L56.1625 350.185Z" fill="#F5E13D"/>
<path d="M56.162 528.221H-42.6334L-78.9694 591.31V636.584L-42.6334 699.673H56.162L105.575 613.963L56.162 528.221Z" fill="url(#paint15_linear)"/>
<path d="M54.7614 530.654L102.742 613.931L54.7614 697.208H-41.2006L-76.5091 635.897V591.965L-41.2006 530.654H54.7614ZM56.1625 528.221H-42.6328L-79 591.341V636.615L-42.6328 699.736H56.1625L105.545 613.994L56.1625 528.221Z" fill="#F5E13D"/>
<path d="M210.443 439.14H111.647L62.2652 524.882L111.647 610.624H210.443L259.856 524.882L210.443 439.14Z" fill="url(#paint16_linear)"/>
<path d="M209.042 441.605L257.023 524.882L209.042 608.159H113.08L65.0986 524.882L113.08 441.605H209.042ZM210.443 439.14H111.647L62.2652 524.882L111.647 610.624H210.443L259.825 524.882L210.443 439.14Z" fill="#F5E13D"/>
<path d="M210.443 617.176H111.647L62.2652 702.918L111.647 788.66H210.443L259.856 702.918L210.443 617.176Z" fill="url(#paint17_linear)"/>
<path d="M209.042 619.61L257.023 702.887L209.042 786.164H113.08L65.0986 702.918L113.08 619.641H209.042V619.61ZM210.443 617.176H111.647L62.2652 702.918L111.647 788.66H210.443L259.825 702.918L210.443 617.176Z" fill="#F5E13D"/>
<path d="M364.723 350.185H265.927L216.545 435.926L265.927 521.668H364.723L414.136 435.926L364.723 350.185Z" fill="url(#paint18_linear)"/>
<path d="M363.322 352.65L411.303 435.926L363.322 519.203H267.36L219.379 435.926L267.36 352.65H363.322ZM364.723 350.185H265.927L216.545 435.926L265.927 521.668H364.723L414.105 435.926L364.723 350.185Z" fill="#F5E13D"/>
<path d="M364.723 528.221H265.927L216.545 613.963L265.927 699.673H364.723L414.136 613.963L364.723 528.221Z" fill="url(#paint19_linear)"/>
<path d="M363.322 530.654L411.303 613.931L363.322 697.208H267.36L219.379 613.931L267.36 530.654H363.322ZM364.723 528.221H265.927L216.545 613.963L265.927 699.704H364.723L414.105 613.963L364.723 528.221Z" fill="#F5E13D"/>
<path d="M519.003 439.14H420.208L370.826 524.882L420.208 610.624H519.003L568.416 524.882L519.003 439.14Z" fill="url(#paint20_linear)"/>
<path d="M517.602 441.605L565.583 524.882L517.602 608.159H421.64L373.659 524.882L421.64 441.605H517.602ZM519.003 439.14H420.208L370.826 524.882L420.208 610.624H519.003L568.416 524.882L519.003 439.14Z" fill="#F5E13D"/>
<path d="M1136.12 617.176H1037.33L987.946 702.918L1037.33 788.66H1136.12L1185.54 702.918L1136.12 617.176Z" fill="url(#paint21_linear)"/>
<path d="M1134.72 619.61L1182.7 702.887L1134.72 786.164H1038.76L990.78 702.887L1038.76 619.61H1134.72ZM1136.12 617.176H1037.33L987.946 702.918L1037.33 788.66H1136.12L1185.51 702.918L1136.12 617.176Z" fill="#F5E13D"/>
<path d="M982.178 527.657H883.382L834 613.399L883.382 699.141H982.178L1031.59 613.399L982.178 527.657Z" fill="url(#paint22_linear)"/>
<path d="M980.776 530.091L1028.76 613.368L980.776 696.645H884.814L836.833 613.368L884.814 530.091H980.776ZM982.178 527.657H883.382L834 613.399L883.382 699.141H982.178L1031.56 613.399L982.178 527.657Z" fill="#F5E13D"/>
<path d="M1136.12 439.381H1037.33L987.946 525.123L1037.33 610.864H1136.12L1185.54 525.123L1136.12 439.381Z" fill="url(#paint23_linear)"/>
<path d="M1134.72 441.814L1182.7 525.091L1134.72 608.368H1038.76L990.78 525.091L1038.76 441.814H1134.72ZM1136.12 439.381H1037.33L987.946 525.123L1037.33 610.864H1136.12L1185.51 525.123L1136.12 439.381Z" fill="#F5E13D"/>
<path d="M1290.4 350.185H1191.61L1142.23 435.926L1191.61 521.668H1290.4L1339.82 435.926L1290.4 350.185Z" fill="url(#paint24_linear)"/>
<path d="M1289 352.65L1336.98 435.926L1289 519.203H1193.04L1145.06 435.926L1193.04 352.65H1289ZM1290.4 350.185H1191.61L1142.23 435.926L1191.61 521.668H1290.4L1339.79 435.926L1290.4 350.185Z" fill="#F5E13D"/>
<path d="M1290.4 528.221H1191.61L1142.23 613.963L1191.61 699.673H1290.4L1339.82 613.963L1290.4 528.221Z" fill="url(#paint25_linear)"/>
<path d="M1289 530.654L1336.98 613.931L1289 697.208H1193.04L1145.06 613.931L1193.04 530.654H1289ZM1290.4 528.221H1191.61L1142.23 613.963L1191.61 699.704H1290.4L1339.79 613.963L1290.4 528.221Z" fill="#F5E13D"/>
<path d="M1476.19 493.837L1444.68 439.14H1345.89L1296.51 524.882L1345.89 610.624H1444.68L1476.19 555.959V493.837Z" fill="url(#paint26_linear)"/>
<path d="M1443.28 441.605L1473.77 494.492V555.272L1443.28 608.159H1347.32L1299.34 524.882L1347.32 441.605H1443.28ZM1444.68 439.14H1345.89L1296.51 524.882L1345.89 610.624H1444.68L1476.19 555.928V493.805L1444.68 439.14Z" fill="#F5E13D"/>
<path d="M1476.19 671.842L1444.68 617.176H1345.89L1296.51 702.918L1345.89 788.66H1444.68L1476.19 733.964V671.842Z" fill="url(#paint27_linear)"/>
<path d="M1443.28 619.61L1473.77 672.497V733.277L1443.28 786.164H1347.32L1299.34 702.887L1347.32 619.61H1443.28ZM1444.68 617.176H1345.89L1296.51 702.918L1345.89 788.66H1444.68L1476.19 733.964V671.842L1444.68 617.176Z" fill="#F5E13D"/>
<defs>
<linearGradient id="paint0_linear" x1="979.883" y1="3213.72" x2="-840.176" y2="-60.8088" gradientUnits="userSpaceOnUse">
<stop stop-color="#F5E13D"/>
<stop offset="0.419" stop-color="#F5F5F5"/>
<stop offset="0.9893" stop-color="#E4E3E4"/>
<stop offset="1" stop-color="#E4E3E4"/>
</linearGradient>
<linearGradient id="paint1_linear" x1="89.6362" y1="61.9897" x2="238.883" y2="-86.9453" gradientUnits="userSpaceOnUse">
<stop stop-color="#F5E13D"/>
<stop offset="0.419" stop-color="#F5F5F5"/>
<stop offset="0.9893" stop-color="#E4E3E4"/>
<stop offset="1" stop-color="#E4E3E4"/>
</linearGradient>
<linearGradient id="paint2_linear" x1="398.196" y1="61.99" x2="547.444" y2="-86.9451" gradientUnits="userSpaceOnUse">
<stop stop-color="#F5E13D"/>
<stop offset="0.419" stop-color="#F5F5F5"/>
<stop offset="0.9893" stop-color="#E4E3E4"/>
<stop offset="1" stop-color="#E4E3E4"/>
</linearGradient>
<linearGradient id="paint3_linear" x1="706.756" y1="61.9897" x2="856.003" y2="-86.945" gradientUnits="userSpaceOnUse">
<stop stop-color="#F5E13D"/>
<stop offset="0.419" stop-color="#F5F5F5"/>
<stop offset="0.9893" stop-color="#E4E3E4"/>
<stop offset="1" stop-color="#E4E3E4"/>
</linearGradient>
<linearGradient id="paint4_linear" x1="-65.0506" y1="151.257" x2="84.1967" y2="2.32172" gradientUnits="userSpaceOnUse">
<stop stop-color="#F5E13D"/>
<stop offset="0.419" stop-color="#F5F5F5"/>
<stop offset="0.9893" stop-color="#E4E3E4"/>
<stop offset="1" stop-color="#E4E3E4"/>
</linearGradient>
<linearGradient id="paint5_linear" x1="-65.0503" y1="329.276" x2="84.197" y2="180.341" gradientUnits="userSpaceOnUse">
<stop stop-color="#F5E13D"/>
<stop offset="0.419" stop-color="#F5F5F5"/>
<stop offset="0.9893" stop-color="#E4E3E4"/>
<stop offset="1" stop-color="#E4E3E4"/>
</linearGradient>
<linearGradient id="paint6_linear" x1="89.2298" y1="240.215" x2="238.477" y2="91.2801" gradientUnits="userSpaceOnUse">
<stop stop-color="#F5E13D"/>
<stop offset="0.419" stop-color="#F5F5F5"/>
<stop offset="0.9893" stop-color="#E4E3E4"/>
<stop offset="1" stop-color="#E4E3E4"/>
</linearGradient>
<linearGradient id="paint7_linear" x1="89.2298" y1="418.234" x2="238.477" y2="269.299" gradientUnits="userSpaceOnUse">
<stop stop-color="#F5E13D"/>
<stop offset="0.419" stop-color="#F5F5F5"/>
<stop offset="0.9893" stop-color="#E4E3E4"/>
<stop offset="1" stop-color="#E4E3E4"/>
</linearGradient>
<linearGradient id="paint8_linear" x1="243.51" y1="151.257" x2="392.757" y2="2.32167" gradientUnits="userSpaceOnUse">
<stop stop-color="#F5E13D"/>
<stop offset="0.419" stop-color="#F5F5F5"/>
<stop offset="0.9893" stop-color="#E4E3E4"/>
<stop offset="1" stop-color="#E4E3E4"/>
</linearGradient>
<linearGradient id="paint9_linear" x1="243.51" y1="329.276" x2="392.757" y2="180.341" gradientUnits="userSpaceOnUse">
<stop stop-color="#F5E13D"/>
</linearGradient>
<linearGradient id="paint10_linear" x1="397.79" y1="240.215" x2="547.037" y2="91.28" gradientUnits="userSpaceOnUse">
<stop stop-color="#F5E13D"/>
<stop offset="0.419" stop-color="#F5F5F5"/>
<stop offset="0.9893" stop-color="#E4E3E4"/>
<stop offset="1" stop-color="#E4E3E4"/>
</linearGradient>
<linearGradient id="paint11_linear" x1="397.79" y1="418.234" x2="547.037" y2="269.299" gradientUnits="userSpaceOnUse">
<stop stop-color="#F5E13D"/>
<stop offset="0.419" stop-color="#F5F5F5"/>
<stop offset="0.9893" stop-color="#E4E3E4"/>
<stop offset="1" stop-color="#E4E3E4"/>
</linearGradient>
<linearGradient id="paint12_linear" x1="552.07" y1="151.257" x2="701.317" y2="2.32167" gradientUnits="userSpaceOnUse">
<stop stop-color="#F5E13D"/>
<stop offset="0.419" stop-color="#F5F5F5"/>
<stop offset="0.9893" stop-color="#E4E3E4"/>
<stop offset="1" stop-color="#E4E3E4"/>
</linearGradient>
<linearGradient id="paint13_linear" x1="1323.47" y1="418.234" x2="1472.72" y2="269.299" gradientUnits="userSpaceOnUse">
<stop stop-color="#F5E13D"/>
<stop offset="0.419" stop-color="#F5F5F5"/>
<stop offset="0.9893" stop-color="#E4E3E4"/>
<stop offset="1" stop-color="#E4E3E4"/>
</linearGradient>
<linearGradient id="paint14_linear" x1="-65.0503" y1="507.908" x2="84.1969" y2="358.973" gradientUnits="userSpaceOnUse">
<stop stop-color="#F5E13D"/>
<stop offset="0.419" stop-color="#F5F5F5"/>
<stop offset="0.9893" stop-color="#E4E3E4"/>
<stop offset="1" stop-color="#E4E3E4"/>
</linearGradient>
<linearGradient id="paint15_linear" x1="-65.0506" y1="685.927" x2="84.1968" y2="536.992" gradientUnits="userSpaceOnUse">
<stop stop-color="#F5E13D"/>
<stop offset="0.419" stop-color="#F5F5F5"/>
<stop offset="0.9893" stop-color="#E4E3E4"/>
<stop offset="1" stop-color="#E4E3E4"/>
</linearGradient>
<linearGradient id="paint16_linear" x1="89.2298" y1="596.867" x2="238.477" y2="447.932" gradientUnits="userSpaceOnUse">
<stop stop-color="#F5E13D"/>
<stop offset="0.419" stop-color="#F5F5F5"/>
<stop offset="0.9893" stop-color="#E4E3E4"/>
<stop offset="1" stop-color="#E4E3E4"/>
</linearGradient>
<linearGradient id="paint17_linear" x1="89.2298" y1="774.886" x2="238.477" y2="625.951" gradientUnits="userSpaceOnUse">
<stop stop-color="#F5E13D"/>
<stop offset="0.419" stop-color="#F5F5F5"/>
<stop offset="0.9893" stop-color="#E4E3E4"/>
<stop offset="1" stop-color="#E4E3E4"/>
</linearGradient>
<linearGradient id="paint18_linear" x1="243.51" y1="507.908" x2="392.757" y2="358.973" gradientUnits="userSpaceOnUse">
<stop stop-color="#F5E13D"/>
</linearGradient>
<linearGradient id="paint19_linear" x1="243.51" y1="685.927" x2="392.757" y2="536.992" gradientUnits="userSpaceOnUse">
<stop stop-color="#F5E13D"/>
<stop offset="0.419" stop-color="#F5F5F5"/>
<stop offset="0.9893" stop-color="#E4E3E4"/>
<stop offset="1" stop-color="#E4E3E4"/>
</linearGradient>
<linearGradient id="paint20_linear" x1="397.79" y1="596.867" x2="547.037" y2="447.932" gradientUnits="userSpaceOnUse">
<stop stop-color="#F5E13D"/>
<stop offset="0.419" stop-color="#F5F5F5"/>
<stop offset="0.9893" stop-color="#E4E3E4"/>
<stop offset="1" stop-color="#E4E3E4"/>
</linearGradient>
<linearGradient id="paint21_linear" x1="1014.91" y1="774.886" x2="1164.16" y2="625.95" gradientUnits="userSpaceOnUse">
<stop stop-color="#F5E13D"/>
<stop offset="0.419" stop-color="#F5F5F5"/>
<stop offset="0.9893" stop-color="#E4E3E4"/>
<stop offset="1" stop-color="#E4E3E4"/>
</linearGradient>
<linearGradient id="paint22_linear" x1="860.964" y1="685.366" x2="1010.21" y2="536.431" gradientUnits="userSpaceOnUse">
<stop stop-color="#F5E13D"/>
<stop offset="0.419" stop-color="#F5F5F5"/>
<stop offset="0.9893" stop-color="#E4E3E4"/>
<stop offset="1" stop-color="#E4E3E4"/>
</linearGradient>
<linearGradient id="paint23_linear" x1="1014.91" y1="597.09" x2="1164.16" y2="448.155" gradientUnits="userSpaceOnUse">
<stop stop-color="#F5E13D"/>
<stop offset="0.419" stop-color="#F5F5F5"/>
<stop offset="0.9893" stop-color="#E4E3E4"/>
<stop offset="1" stop-color="#E4E3E4"/>
</linearGradient>
<linearGradient id="paint24_linear" x1="1169.19" y1="507.908" x2="1318.44" y2="358.973" gradientUnits="userSpaceOnUse">
<stop stop-color="#F5E13D"/>
<stop offset="0.419" stop-color="#F5F5F5"/>
<stop offset="0.9893" stop-color="#E4E3E4"/>
<stop offset="1" stop-color="#E4E3E4"/>
</linearGradient>
<linearGradient id="paint25_linear" x1="1169.19" y1="685.927" x2="1318.44" y2="536.992" gradientUnits="userSpaceOnUse">
<stop stop-color="#8019A8"/>
</linearGradient>
<linearGradient id="paint26_linear" x1="1323.47" y1="596.867" x2="1472.72" y2="447.932" gradientUnits="userSpaceOnUse">
<stop stop-color="#F5E13D"/>
<stop offset="0.419" stop-color="#F5F5F5"/>
<stop offset="0.9893" stop-color="#E4E3E4"/>
<stop offset="1" stop-color="#E4E3E4"/>
</linearGradient>
<linearGradient id="paint27_linear" x1="1323.47" y1="774.886" x2="1472.72" y2="625.951" gradientUnits="userSpaceOnUse">
<stop stop-color="#F5E13D"/>
<stop offset="0.419" stop-color="#F5F5F5"/>
<stop offset="0.9893" stop-color="#E4E3E4"/>
<stop offset="1" stop-color="#E4E3E4"/>
</linearGradient>
</defs>
</svg>
